<svg width="200" height="200" viewBox="0 0 200 200" fill="none" xmlns="http://www.w3.org/2000/svg">
<path d="M115.437 86.9777L115.427 78.5968C115.511 78.5964 123.947 78.5065 132.892 74.3219C144.509 68.8879 151.611 59.2874 154 45.7872L162.253 47.2478C158.621 67.7701 146.039 77.5069 136.124 82.0615C125.543 86.922 115.845 86.9777 115.437 86.9777H115.437Z" fill="#2424FF"/>
<path d="M155.477 59.1087C155.477 59.1087 161.165 57.9633 161.986 56.5842C162.807 55.2053 156.492 45.4428 156.492 45.4428L152.145 48.0591L155.477 59.1087H155.477Z" fill="#2424FF"/>
<path d="M76.8287 46.6534C78.2219 45.9386 78.9797 44.6347 78.5211 43.7409C78.0626 42.8471 76.5614 42.702 75.1682 43.4168C73.775 44.1315 73.0173 45.4355 73.4758 46.3293C73.9343 47.223 75.4355 47.3682 76.8287 46.6534Z" fill="#FF24FF"/>
<path d="M84.9021 172.428C84.9021 172.428 97.0425 176.715 100.945 166.118C103.807 166.804 106.553 167.394 106.553 167.394C106.553 167.394 104.114 181.932 85.2133 177.773C85.1207 175.739 84.9021 172.428 84.9021 172.428V172.428Z" fill="#2424FF"/>
<path d="M141.396 151.089C141.396 151.089 153.165 148.521 155.305 163.714C156.803 163.072 159.799 161.681 159.799 161.681C158.301 156.439 155.994 145.92 142.466 145.953C142.145 148.414 141.396 151.089 141.396 151.089H141.396Z" fill="#2424FF"/>
<path d="M122.273 161.16C109.126 165.894 94.6301 159.074 89.8957 145.927L65.9277 79.2038C61.1936 66.0567 68.0133 51.561 81.1605 46.8267C94.3077 42.0923 108.803 48.9123 113.538 62.0594L137.506 128.782C142.24 141.93 135.42 156.425 122.273 161.16Z" fill="#2424FF"/>
<path d="M139.698 142.835C141.107 135.235 139.364 128.514 139.364 128.514L87.9011 142.637C88.5984 147.417 91.7771 153.611 97.1654 158.037L92.1735 162.925C92.1735 162.925 95.6122 162.909 97.2898 165.754C98.9675 168.599 101.991 168.731 103.694 168.564C105.398 168.396 104.711 172.334 110.93 171.077C111.163 169.204 111.736 166.074 112.2 163.657C115.796 163.747 119.757 163.1 124.064 161.467C127.324 160.23 129.945 158.621 132.054 156.782L141.504 161.467C141.504 161.467 139.471 156.117 142.894 154.94C146.318 153.763 143.857 146.381 147.174 144.669C145.183 144.076 142.37 143.416 139.698 142.835L139.698 142.835Z" fill="#FFE200"/>
<path d="M86.5785 60.0465C86.5785 60.0465 89.8567 64.8584 92.7454 66.6236C95.6341 68.3889 93.4105 73.2827 89.876 70.349C85.2196 66.4841 86.2504 60.8865 86.5785 60.0465Z" fill="#27FFEA"/>
<path d="M69.7663 83.4979C78.0535 83.4979 84.7717 78.5042 84.7717 72.3441C84.7717 66.1841 78.0535 61.1904 69.7663 61.1904C61.479 61.1904 54.7608 66.1841 54.7608 72.3441C54.7608 78.5042 61.479 83.4979 69.7663 83.4979Z" fill="#2424FF"/>
<path d="M70.007 78.8434C74.9705 78.8434 78.9943 76.0412 78.9943 72.5845C78.9943 69.1279 74.9705 66.3257 70.007 66.3257C65.0435 66.3257 61.0197 69.1279 61.0197 72.5845C61.0197 76.0412 65.0435 78.8434 70.007 78.8434Z" fill="white"/>
<path d="M115.97 65.335C121.613 59.2658 122.53 50.9454 118.019 46.7508C113.508 42.5563 105.276 44.076 99.633 50.1452C93.99 56.2144 93.0726 64.5348 97.5839 68.7293C102.095 72.9239 110.327 71.4041 115.97 65.335Z" fill="#2424FF"/>
<path d="M112.725 61.9897C116.105 58.3546 116.793 53.4998 114.261 51.146C111.73 48.7923 106.938 49.831 103.558 53.4661C100.178 57.1011 99.4905 61.956 102.022 64.3097C104.554 66.6635 109.346 65.6248 112.725 61.9897Z" fill="white"/>
<path d="M88.9657 171.247L77.7112 168.697L70.9709 186.029C70.9709 186.029 76.0262 187.233 78.429 183.25C80.0778 180.517 81.9163 179.359 86.7689 180.601C88.2137 175.621 88.9657 171.247 88.9657 171.247Z" fill="#FF24FF"/>
<path d="M153.272 162.858L155.466 173.271L174.243 167.253C174.243 167.253 172.558 161.475 167.344 163.17C164.309 164.156 163.664 163.193 161.082 158.9C156.556 161.429 153.272 162.858 153.272 162.858L153.272 162.858Z" fill="#FF24FF"/>
<path d="M36.276 108.69C36.276 108.69 40.4499 105.143 46.0838 106.075C51.9873 107.052 49.7661 112.201 49.7661 112.201C49.7661 112.201 56.3556 116.197 59.4924 118.157C62.6292 120.117 60.7409 123.947 56.6395 121.947C54.6078 120.956 49.0263 118.038 49.0263 118.038C49.0263 118.038 48.5802 121.273 45.0083 121.949C45.3898 124.246 43.0702 125.826 40.1624 124.857C37.2545 123.888 33.4428 119.37 33.2249 114.793C32.9932 109.927 36.2762 108.69 36.2762 108.69H36.276Z" fill="#2424FF"/>
<path d="M69.2045 55.7337C69.2045 55.7337 87.072 49.1002 90.3885 45.2486C83.4342 40.6481 69.9533 45.7835 69.2045 55.7337Z" fill="#FC80FF"/>
<path d="M78.8337 51.775C78.8337 51.775 88.4628 47.1745 89.3189 36.9033C90.1748 26.6322 100.088 29.3701 98.413 35.5124C96.8081 41.3969 91.2446 47.1745 78.8337 51.775Z" fill="#FF24FF"/>
<path d="M176.664 65.0456L160.581 66.7635L157.719 61.8933L154.375 30.5801L156.469 24.8109L172.431 23.106L175.627 28.8029L178.92 59.6288L176.664 65.0456Z" fill="#FF24FF"/>
<path d="M164.836 26.9979C169.278 26.5235 172.744 24.8842 172.579 23.3365C172.413 21.7888 168.679 20.9188 164.238 21.3932C159.796 21.8676 156.33 23.5068 156.495 25.0545C156.661 26.6022 160.395 27.4723 164.836 26.9979Z" fill="#27FFEA"/>
<path d="M88.6943 77.0804C91.7091 76.9266 94.4403 76.979 99.3752 72.6188C104.705 67.9098 112.524 74.7144 108.265 83.8067C105.038 90.6943 94.6965 92.9322 88.9309 91.04C80.1766 88.1671 81.5768 77.4435 88.6943 77.0806V77.0804Z" fill="#27FFEA"/>
<path d="M90.8605 79.7513C93.2927 79.6272 95.8968 80.3935 100.043 76.4276C104.189 72.4618 108.271 76.1655 105.12 81.9362C102.18 87.3218 94.5764 88.9085 89.8426 87.6597C84.3332 86.2063 85.1183 80.0442 90.8605 79.7513Z" fill="white"/>
<path d="M93.1139 88.6099C91.8696 88.6099 90.7028 88.4685 89.6992 88.2036C86.5752 87.3796 85.371 85.1425 85.5632 83.2911C85.7624 81.3728 87.4688 79.3603 90.8318 79.1889L90.8605 79.751L90.8318 79.1889C91.232 79.1686 91.64 79.1713 92.0345 79.1738C94.1458 79.1874 96.3272 79.2025 99.6538 76.0205C101.617 74.1423 103.873 73.6849 105.401 74.8551C106.884 75.9916 107.526 78.7051 105.614 82.2056C103.127 86.7608 97.6132 88.6099 93.1139 88.6099ZM90.889 80.3132C88.191 80.4509 86.8325 81.9665 86.6827 83.4076C86.5504 84.6811 87.3362 86.4162 89.986 87.1154C94.2607 88.2432 101.726 86.9769 104.626 81.6663C106.21 78.7665 105.783 76.5661 104.716 75.749C103.653 74.935 101.972 75.3611 100.432 76.8341C96.7754 80.3314 94.1417 80.3142 92.0267 80.2996C91.6307 80.2969 91.2567 80.2943 90.8888 80.3132H90.889Z" fill="#2424FF"/>
<path d="M95.5447 79.5358L96.5893 79.116L99.5352 86.4449L98.4906 86.8647L95.5447 79.5358Z" fill="#2424FF"/>
<path d="M89.5714 80.3718L90.6352 80.004L93.2936 87.6921L92.2299 88.0599L89.5714 80.3718Z" fill="#2424FF"/>
<path d="M100.602 76.1893L101.654 75.7903L104.538 83.3968L103.485 83.7958L100.602 76.1893Z" fill="#2424FF"/>
<path d="M89.4933 84.5491C87.5451 84.5491 86.2274 84.3504 86.1373 84.3366L86.3096 83.2243C86.4491 83.2458 100.315 85.2612 104.752 75.5002L105.777 75.966C103.787 80.3441 99.7452 83.179 94.0894 84.1642C92.3945 84.4594 90.8017 84.5491 89.4935 84.5491H89.4933Z" fill="#2424FF"/>
<path d="M107.828 55.172C109.128 55.172 110.182 54.1182 110.182 52.8182C110.182 51.5183 109.128 50.4644 107.828 50.4644C106.528 50.4644 105.474 51.5183 105.474 52.8182C105.474 54.1182 106.528 55.172 107.828 55.172Z" fill="#2424FF"/>
<path d="M161.751 25.4921C163.043 25.3093 164.02 24.6674 163.934 24.0583C163.848 23.4492 162.731 23.1036 161.439 23.2864C160.148 23.4692 159.171 24.1112 159.257 24.7202C159.343 25.3293 160.46 25.6749 161.751 25.4921Z" fill="#2424FF"/>
<path d="M70.0872 79.2718C71.3577 79.2718 72.3876 78.2419 72.3876 76.9715C72.3876 75.701 71.3577 74.6711 70.0872 74.6711C68.8168 74.6711 67.7869 75.701 67.7869 76.9715C67.7869 78.2419 68.8168 79.2718 70.0872 79.2718Z" fill="#2424FF"/>
<path d="M152.26 57.1927C152.26 57.1927 150.246 50.1265 150.517 47.2012C150.785 44.3125 152.014 41.8311 155.76 39.4978C159.023 37.465 160.574 40.9957 158.488 43.0285C156.265 45.1941 155.064 47.1477 155.064 47.1477C155.064 47.1477 159.023 52.5507 154.695 56.825C151.95 59.5356 152.259 57.1927 152.259 57.1927H152.26Z" fill="#2424FF"/>
<path d="M167.97 33.3311L163.185 47.1724L168.482 46.318L166.945 58.4506L173.78 42.9004L167.799 43.5839L167.97 33.3311Z" fill="#FFF203"/>
<path d="M157.418 20.9351C157.418 20.9351 153.994 15.6926 146.612 17.4044C139.23 19.1162 143.616 26.2846 147.789 23.075C151.962 19.8653 156.134 20.2931 157.418 20.9351Z" fill="#27FFEA"/>
<path d="M142.251 15.8102C142.251 15.8102 134.403 10.7454 125.383 17.5595C116.364 24.3736 126.692 31.4781 130.429 24.5714C134.166 17.6649 140.111 15.7149 142.25 15.8102H142.251Z" fill="#27FFEA"/>
<path d="M170.258 86.9912C169.302 85.8947 167.917 85.3083 166.504 85.351C166.115 85.3628 165.723 85.4223 165.338 85.5318L151.878 89.3619C150.161 89.8505 148.859 91.2537 148.499 93.002L144.328 113.274C143.016 112.83 141.434 112.558 139.527 112.616C137.425 112.679 138.657 111.127 138.657 111.127L138.749 107.97L144.734 96.0662C145.601 94.3417 145.347 92.2651 144.091 90.7997C143.133 89.6825 141.735 89.0868 140.311 89.1298C139.867 89.1432 139.421 89.2186 138.984 89.3596L132.928 91.3155C131.621 91.7375 130.559 92.7005 130.01 93.9595L129.808 94.4232C128.861 93.4162 127.533 92.8784 126.178 92.9192C125.76 92.9318 125.34 92.9992 124.928 93.1248L119.353 94.8217C118.818 94.9847 118.325 95.239 117.889 95.564C117.527 95.489 117.154 95.4534 116.778 95.4647C116.377 95.4769 115.973 95.5395 115.573 95.6568L109.997 97.2928C108.671 97.6815 107.592 98.6201 107.014 99.8498C106.321 99.5152 105.557 99.3503 104.787 99.3736C104.41 99.3849 104.032 99.441 103.66 99.5435C103.252 99.6556 102.51 99.8639 101.544 100.135C97.2579 101.337 88.3391 103.839 85.286 104.508C85.1269 104.542 84.9723 104.588 84.8202 104.637C85.1827 102.409 83.9402 100.229 81.8345 99.4077C81.22 99.1682 80.5809 99.0635 79.9532 99.0825C78.4214 99.1286 76.9576 99.9104 76.0806 101.261C75.9526 101.457 72.908 106.155 69.6145 112.148C65.0475 120.458 62.3371 127.009 61.5592 131.617C61.4938 132.004 61.4798 132.392 61.5085 132.774L56.7718 134.212C54.8882 134.785 53.5468 136.451 53.3905 138.414L52.8943 144.649C52.7672 146.246 53.4477 147.801 54.7071 148.792C55.6012 149.495 56.7031 149.848 57.8119 149.815C58.1557 149.804 58.5001 149.757 58.8394 149.671L58.1703 158.827C58.0545 160.412 58.7329 161.952 59.981 162.936C60.8755 163.641 61.9791 163.995 63.0902 163.962C63.5295 163.949 63.9697 163.875 64.399 163.738L70.0055 161.952C71.6993 161.412 72.9338 159.987 73.2556 158.276C74.7746 159.114 76.608 159.521 78.6644 159.459C82.7392 159.337 86.9967 157.433 89.6424 154.369C90.4394 154.856 91.3561 155.099 92.2799 155.071C92.6815 155.059 93.0838 154.996 93.4781 154.881L98.1455 153.517C99.4535 153.135 100.503 152.228 101.086 151.062C101.872 151.529 102.772 151.758 103.675 151.731C104.083 151.719 104.491 151.655 104.891 151.536L110.406 149.902C110.713 149.811 111.004 149.69 111.28 149.544C111.716 149.529 112.152 149.454 112.577 149.317L117.603 147.698C118.803 147.312 119.771 146.481 120.346 145.42C121.066 145.795 121.878 145.985 122.702 145.96C123.066 145.949 123.432 145.896 123.794 145.799L127.919 144.697C128.941 144.424 129.813 143.83 130.437 143.04C130.859 143.144 131.293 143.194 131.73 143.18C132.165 143.167 132.601 143.095 133.026 142.961C133.026 142.961 144.619 139.348 147.921 130.98C144.63 138.315 151.335 141.958 154.949 140.937C155.008 140.92 155.071 140.935 155.133 140.933C159.257 140.809 162.944 137.702 163.71 133.707C164.126 131.537 163.622 129.355 162.33 127.669L170.771 110.069C171.602 108.338 171.317 106.278 170.049 104.837C169.092 103.748 167.713 103.171 166.309 103.213C166.248 103.215 166.187 103.217 166.126 103.222L171.032 92.0644C171.779 90.3662 171.478 88.3897 170.259 86.9914L170.258 86.9912Z" fill="#FF24FF"/>
<path d="M80.0955 103.869C80.0955 103.869 69.5626 120.827 66.514 130.588C71.0982 128.494 80.796 125.633 80.796 125.633L80.2472 137.767L89.4941 119.484C89.4941 119.484 82.7273 121.959 77.7508 123.21C78.9628 114.734 80.0955 103.869 80.0955 103.869Z" fill="white"/>
<path d="M92.67 125.442L97.7595 123.882L98.8758 112.23L103.849 110.857L104.931 104.159C102.687 104.777 90.1974 108.333 86.3095 109.184L85.5309 115.812L93.9585 113.418L92.67 125.442V125.442Z" fill="white"/>
<path d="M133.814 112.95L133.995 106.769L140.456 93.916L134.4 95.8719L131.025 103.617L126.322 97.7052L120.748 99.4022L128.281 107.919L127.941 114.901L133.814 112.95Z" fill="white"/>
<path d="M75.668 133.476L58.1632 138.793L57.6668 145.028L64.134 142.905L62.9452 159.176L68.5516 157.389L69.2434 141.134L75.4072 139.269L75.668 133.476Z" fill="white"/>
<path d="M82.0748 148.092C81.8734 150.821 78.824 150.945 78.7905 149.129L79.1352 141.809L74.2845 143.179L73.9156 151.218C73.9985 157.641 87.4706 154.355 87.4884 147.596L87.7342 139.473L82.3591 141.242L82.075 148.092H82.0748Z" fill="white"/>
<path d="M104.482 140.266L97.4113 128.86L93.3511 130.083L92.8684 150.583L97.8951 148.964L98.3078 138.311L104.318 146.997L108.443 145.894L109.41 125.258L104.922 126.494L104.482 140.266Z" fill="white"/>
<path d="M113.345 144.217L124.915 140.567L125.195 135.666L118.11 137.959L118.43 134.403L122.796 133.17L123.239 129.61L118.388 130.979L118.752 126.81L125.474 124.651L125.951 120.173L114.265 124.01L113.345 144.217Z" fill="white"/>
<path d="M129.287 119.277L128.188 139.612C132.246 138.328 141.209 135.017 141.931 126.907C142.799 117.158 135.706 117.188 129.287 119.277ZM137.458 126.613C137.024 130.746 135.14 132.511 133.069 133.166L133.63 122.789C136.278 122.066 137.838 122.994 137.458 126.613Z" fill="white"/>
<path d="M166.649 90.1367L153.189 93.9668L148.175 118.333L157.373 115.121L155.402 126.799L157.823 125.992L166.453 107.998L157.492 110.959L166.649 90.1367Z" fill="white"/>
<path d="M111.873 119.421L112.528 116.269L117.771 114.663L118.78 117.317L124.111 115.627L116.921 100.251L111.344 101.887L105.452 121.448L111.873 119.42L111.873 119.421ZM114.596 106.314L116.545 111.439L113.324 112.438L114.597 106.314H114.596Z" fill="white"/>
<path d="M156.178 129.52C154.265 129.537 152.429 131.034 152.078 132.864C151.727 134.695 152.994 136.165 154.907 136.149C156.821 136.132 158.656 134.635 159.007 132.805C159.358 130.975 158.091 129.504 156.178 129.52Z" fill="white"/>
<path d="M33.8328 115.803C29.0167 112.593 25.5055 109.362 23.3968 106.201C20.1832 101.383 20.7426 97.5854 21.7776 95.2477C23.3329 91.7357 27.8599 87.4113 40.5947 86.7551C50.2009 86.2596 62.9489 87.9221 77.4586 91.5616L75.4195 99.6906C58.0945 95.3449 47.1534 94.809 41.0261 95.1249C32.9088 95.5433 29.8985 97.608 29.4409 98.6411C29.0718 99.4748 29.9404 103.136 38.4817 108.83L33.8328 115.803V115.803Z" fill="#2424FF"/>
</svg>
