<?xml version="1.0" standalone="no"?>
<svg xmlns="http://www.w3.org/2000/svg" width="500" height="500"><defs><clipPath id="clip-path-dot-color"><circle cx="21.5" cy="287.5" r="9.5" transform="rotate(0,21.5,287.5)"/><path d="M 12 316v 19h 9.5a 9.5 9.5, 0, 0, 0, 0 -19" transform="rotate(180,21.5,325.5)"/><path d="M 31 164v 19h 9.5a 9.5 9.5, 0, 0, 0, 0 -19" transform="rotate(180,40.5,173.5)"/><path d="M 31 202v 19h 9.5a 9.5 9.5, 0, 0, 0, 0 -19" transform="rotate(-90,40.5,211.5)"/><path d="M 31 221v 19h 9.5a 9.5 9.5, 0, 0, 0, 0 -19" transform="rotate(90,40.5,230.5)"/><path d="M 31 259v 19h 9.5a 9.5 9.5, 0, 0, 0, 0 -19" transform="rotate(180,40.5,268.5)"/><path d="M 31 316v 19h 9.5a 9.5 9.5, 0, 0, 0, 0 -19" transform="rotate(0,40.5,325.5)"/><path d="M 50 164v 19h 19v -9.5a 9.5 9.5, 0, 0, 0, -9.5 -9.5" transform="rotate(0,59.5,173.5)"/><path d="M 50 183v 19h 19v -9.5a 9.5 9.5, 0, 0, 0, -9.5 -9.5" transform="rotate(180,59.5,192.5)"/><path d="M 50 259v 19h 9.5a 9.5 9.5, 0, 0, 0, 0 -19" transform="rotate(0,59.5,268.5)"/><path d="M 69 183v 19h 9.5a 9.5 9.5, 0, 0, 0, 0 -19" transform="rotate(0,78.5,192.5)"/><path d="M 69 240v 19h 9.5a 9.5 9.5, 0, 0, 0, 0 -19" transform="rotate(180,78.5,249.5)"/><path d="M 69 297v 19h 9.5a 9.5 9.5, 0, 0, 0, 0 -19" transform="rotate(180,78.5,306.5)"/><path d="M 88 202v 19h 9.5a 9.5 9.5, 0, 0, 0, 0 -19" transform="rotate(-90,97.5,211.5)"/><rect x="88" y="221" width="19" height="19" transform="rotate(0,97.5,230.5)"/><rect x="88" y="240" width="19" height="19" transform="rotate(0,97.5,249.5)"/><rect x="88" y="259" width="19" height="19" transform="rotate(0,97.5,268.5)"/><rect x="88" y="278" width="19" height="19" transform="rotate(0,97.5,287.5)"/><rect x="88" y="297" width="19" height="19" transform="rotate(0,97.5,306.5)"/><path d="M 88 316v 19h 19v -9.5a 9.5 9.5, 0, 0, 0, -9.5 -9.5" transform="rotate(180,97.5,325.5)"/><circle cx="116.5" cy="192.5" r="9.5" transform="rotate(0,116.5,192.5)"/><path d="M 107 221v 19h 9.5a 9.5 9.5, 0, 0, 0, 0 -19" transform="rotate(0,116.5,230.5)"/><rect x="107" y="278" width="19" height="19" transform="rotate(0,116.5,287.5)"/><rect x="107" y="316" width="19" height="19" transform="rotate(0,116.5,325.5)"/><circle cx="135.5" cy="173.5" r="9.5" transform="rotate(0,135.5,173.5)"/><circle cx="135.5" cy="211.5" r="9.5" transform="rotate(0,135.5,211.5)"/><circle cx="135.5" cy="249.5" r="9.5" transform="rotate(0,135.5,249.5)"/><rect x="126" y="278" width="19" height="19" transform="rotate(0,135.5,287.5)"/><rect x="126" y="316" width="19" height="19" transform="rotate(0,135.5,325.5)"/><circle cx="154.5" cy="192.5" r="9.5" transform="rotate(0,154.5,192.5)"/><circle cx="154.5" cy="230.5" r="9.5" transform="rotate(0,154.5,230.5)"/><path d="M 145 259v 19h 19v -9.5a 9.5 9.5, 0, 0, 0, -9.5 -9.5" transform="rotate(-90,154.5,268.5)"/><rect x="145" y="278" width="19" height="19" transform="rotate(0,154.5,287.5)"/><rect x="145" y="316" width="19" height="19" transform="rotate(0,154.5,325.5)"/><path d="M 164 31v 19h 9.5a 9.5 9.5, 0, 0, 0, 0 -19" transform="rotate(-90,173.5,40.5)"/><rect x="164" y="50" width="19" height="19" transform="rotate(0,173.5,59.5)"/><path d="M 164 69v 19h 19v -9.5a 9.5 9.5, 0, 0, 0, -9.5 -9.5" transform="rotate(180,173.5,78.5)"/><path d="M 164 107v 19h 9.5a 9.5 9.5, 0, 0, 0, 0 -19" transform="rotate(-90,173.5,116.5)"/><path d="M 164 126v 19h 9.5a 9.5 9.5, 0, 0, 0, 0 -19" transform="rotate(90,173.5,135.5)"/><path d="M 164 259v 19h 19v -9.5a 9.5 9.5, 0, 0, 0, -9.5 -9.5" transform="rotate(0,173.5,268.5)"/><path d="M 164 278v 19h 19v -9.5a 9.5 9.5, 0, 0, 0, -9.5 -9.5" transform="rotate(90,173.5,287.5)"/><rect x="164" y="316" width="19" height="19" transform="rotate(0,173.5,325.5)"/><path d="M 164 430v 19h 9.5a 9.5 9.5, 0, 0, 0, 0 -19" transform="rotate(-90,173.5,439.5)"/><path d="M 164 449v 19h 19v -9.5a 9.5 9.5, 0, 0, 0, -9.5 -9.5" transform="rotate(180,173.5,458.5)"/><path d="M 183 12v 19h 9.5a 9.5 9.5, 0, 0, 0, 0 -19" transform="rotate(180,192.5,21.5)"/><path d="M 183 69v 19h 19v -9.5a 9.5 9.5, 0, 0, 0, -9.5 -9.5" transform="rotate(0,192.5,78.5)"/><path d="M 183 88v 19h 9.5a 9.5 9.5, 0, 0, 0, 0 -19" transform="rotate(90,192.5,97.5)"/><circle cx="192.5" cy="192.5" r="9.5" transform="rotate(0,192.5,192.5)"/><circle cx="192.5" cy="230.5" r="9.5" transform="rotate(0,192.5,230.5)"/><path d="M 183 316v 19h 9.5a 9.5 9.5, 0, 0, 0, 0 -19" transform="rotate(0,192.5,325.5)"/><circle cx="192.5" cy="382.5" r="9.5" transform="rotate(0,192.5,382.5)"/><path d="M 183 449v 19h 9.5a 9.5 9.5, 0, 0, 0, 0 -19" transform="rotate(0,192.5,458.5)"/><path d="M 202 12v 19h 19v -9.5a 9.5 9.5, 0, 0, 0, -9.5 -9.5" transform="rotate(0,211.5,21.5)"/><path d="M 202 31v 19h 19v -9.5a 9.5 9.5, 0, 0, 0, -9.5 -9.5" transform="rotate(180,211.5,40.5)"/><path d="M 202 107v 19h 19v -9.5a 9.5 9.5, 0, 0, 0, -9.5 -9.5" transform="rotate(-90,211.5,116.5)"/><rect x="202" y="126" width="19" height="19" transform="rotate(0,211.5,135.5)"/><path d="M 202 145v 19h 19v -9.5a 9.5 9.5, 0, 0, 0, -9.5 -9.5" transform="rotate(180,211.5,154.5)"/><path d="M 202 278v 19h 9.5a 9.5 9.5, 0, 0, 0, 0 -19" transform="rotate(180,211.5,287.5)"/><path d="M 202 335v 19h 9.5a 9.5 9.5, 0, 0, 0, 0 -19" transform="rotate(-90,211.5,344.5)"/><path d="M 202 354v 19h 9.5a 9.5 9.5, 0, 0, 0, 0 -19" transform="rotate(90,211.5,363.5)"/><circle cx="211.5" cy="401.5" r="9.5" transform="rotate(0,211.5,401.5)"/><path d="M 221 31v 19h 9.5a 9.5 9.5, 0, 0, 0, 0 -19" transform="rotate(0,230.5,40.5)"/><path d="M 221 69v 19h 9.5a 9.5 9.5, 0, 0, 0, 0 -19" transform="rotate(180,230.5,78.5)"/><path d="M 221 107v 19h 9.5a 9.5 9.5, 0, 0, 0, 0 -19" transform="rotate(0,230.5,116.5)"/><rect x="221" y="145" width="19" height="19" transform="rotate(0,230.5,154.5)"/><circle cx="230.5" cy="211.5" r="9.5" transform="rotate(0,230.5,211.5)"/><path d="M 221 259v 19h 9.5a 9.5 9.5, 0, 0, 0, 0 -19" transform="rotate(-90,230.5,268.5)"/><rect x="221" y="278" width="19" height="19" transform="rotate(0,230.5,287.5)"/><path d="M 221 297v 19h 9.5a 9.5 9.5, 0, 0, 0, 0 -19" transform="rotate(90,230.5,306.5)"/><path d="M 221 411v 19h 9.5a 9.5 9.5, 0, 0, 0, 0 -19" transform="rotate(-90,230.5,420.5)"/><path d="M 221 430v 19h 19v -9.5a 9.5 9.5, 0, 0, 0, -9.5 -9.5" transform="rotate(180,230.5,439.5)"/><path d="M 240 50v 19h 9.5a 9.5 9.5, 0, 0, 0, 0 -19" transform="rotate(-90,249.5,59.5)"/><rect x="240" y="69" width="19" height="19" transform="rotate(0,249.5,78.5)"/><path d="M 240 88v 19h 9.5a 9.5 9.5, 0, 0, 0, 0 -19" transform="rotate(90,249.5,97.5)"/><path d="M 240 126v 19h 9.5a 9.5 9.5, 0, 0, 0, 0 -19" transform="rotate(-90,249.5,135.5)"/><rect x="240" y="145" width="19" height="19" transform="rotate(0,249.5,154.5)"/><path d="M 240 164v 19h 9.5a 9.5 9.5, 0, 0, 0, 0 -19" transform="rotate(90,249.5,173.5)"/><path d="M 240 335v 19h 19v -9.5a 9.5 9.5, 0, 0, 0, -9.5 -9.5" transform="rotate(-90,249.5,344.5)"/><rect x="240" y="354" width="19" height="19" transform="rotate(0,249.5,363.5)"/><rect x="240" y="373" width="19" height="19" transform="rotate(0,249.5,382.5)"/><path d="M 240 392v 19h 19v -9.5a 9.5 9.5, 0, 0, 0, -9.5 -9.5" transform="rotate(180,249.5,401.5)"/><path d="M 240 430v 19h 19v -9.5a 9.5 9.5, 0, 0, 0, -9.5 -9.5" transform="rotate(0,249.5,439.5)"/><rect x="240" y="449" width="19" height="19" transform="rotate(0,249.5,458.5)"/><path d="M 240 468v 19h 19v -9.5a 9.5 9.5, 0, 0, 0, -9.5 -9.5" transform="rotate(180,249.5,477.5)"/><path d="M 259 31v 19h 9.5a 9.5 9.5, 0, 0, 0, 0 -19" transform="rotate(180,268.5,40.5)"/><rect x="259" y="69" width="19" height="19" transform="rotate(0,268.5,78.5)"/><rect x="259" y="145" width="19" height="19" transform="rotate(0,268.5,154.5)"/><path d="M 259 221v 19h 19v -9.5a 9.5 9.5, 0, 0, 0, -9.5 -9.5" transform="rotate(-90,268.5,230.5)"/><rect x="259" y="240" width="19" height="19" transform="rotate(0,268.5,249.5)"/><path d="M 259 259v 19h 9.5a 9.5 9.5, 0, 0, 0, 0 -19" transform="rotate(90,268.5,268.5)"/><circle cx="268.5" cy="306.5" r="9.5" transform="rotate(0,268.5,306.5)"/><rect x="259" y="335" width="19" height="19" transform="rotate(0,268.5,344.5)"/><rect x="259" y="354" width="19" height="19" transform="rotate(0,268.5,363.5)"/><rect x="259" y="373" width="19" height="19" transform="rotate(0,268.5,382.5)"/><rect x="259" y="392" width="19" height="19" transform="rotate(0,268.5,401.5)"/><path d="M 259 468v 19h 9.5a 9.5 9.5, 0, 0, 0, 0 -19" transform="rotate(0,268.5,477.5)"/><path d="M 278 31v 19h 9.5a 9.5 9.5, 0, 0, 0, 0 -19" transform="rotate(0,287.5,40.5)"/><rect x="278" y="69" width="19" height="19" transform="rotate(0,287.5,78.5)"/><rect x="278" y="88" width="19" height="19" transform="rotate(0,287.5,97.5)"/><rect x="278" y="107" width="19" height="19" transform="rotate(0,287.5,116.5)"/><rect x="278" y="126" width="19" height="19" transform="rotate(0,287.5,135.5)"/><rect x="278" y="145" width="19" height="19" transform="rotate(0,287.5,154.5)"/><rect x="278" y="164" width="19" height="19" transform="rotate(0,287.5,173.5)"/><rect x="278" y="183" width="19" height="19" transform="rotate(0,287.5,192.5)"/><rect x="278" y="202" width="19" height="19" transform="rotate(0,287.5,211.5)"/><rect x="278" y="221" width="19" height="19" transform="rotate(0,287.5,230.5)"/><path d="M 278 240v 19h 19v -9.5a 9.5 9.5, 0, 0, 0, -9.5 -9.5" transform="rotate(90,287.5,249.5)"/><rect x="278" y="335" width="19" height="19" transform="rotate(0,287.5,344.5)"/><rect x="278" y="392" width="19" height="19" transform="rotate(0,287.5,401.5)"/><path d="M 278 430v 19h 9.5a 9.5 9.5, 0, 0, 0, 0 -19" transform="rotate(-90,287.5,439.5)"/><path d="M 278 449v 19h 9.5a 9.5 9.5, 0, 0, 0, 0 -19" transform="rotate(90,287.5,458.5)"/><circle cx="306.5" cy="21.5" r="9.5" transform="rotate(0,306.5,21.5)"/><path d="M 297 69v 19h 9.5a 9.5 9.5, 0, 0, 0, 0 -19" transform="rotate(0,306.5,78.5)"/><rect x="297" y="202" width="19" height="19" transform="rotate(0,306.5,211.5)"/><path d="M 297 259v 19h 9.5a 9.5 9.5, 0, 0, 0, 0 -19" transform="rotate(180,306.5,268.5)"/><circle cx="306.5" cy="306.5" r="9.5" transform="rotate(0,306.5,306.5)"/><rect x="297" y="335" width="19" height="19" transform="rotate(0,306.5,344.5)"/><rect x="297" y="354" width="19" height="19" transform="rotate(0,306.5,363.5)"/><rect x="297" y="373" width="19" height="19" transform="rotate(0,306.5,382.5)"/><rect x="297" y="392" width="19" height="19" transform="rotate(0,306.5,401.5)"/><path d="M 297 468v 19h 9.5a 9.5 9.5, 0, 0, 0, 0 -19" transform="rotate(180,306.5,477.5)"/><circle cx="325.5" cy="59.5" r="9.5" transform="rotate(0,325.5,59.5)"/><path d="M 316 88v 19h 9.5a 9.5 9.5, 0, 0, 0, 0 -19" transform="rotate(-90,325.5,97.5)"/><rect x="316" y="107" width="19" height="19" transform="rotate(0,325.5,116.5)"/><path d="M 316 126v 19h 9.5a 9.5 9.5, 0, 0, 0, 0 -19" transform="rotate(90,325.5,135.5)"/><path d="M 316 164v 19h 19v -9.5a 9.5 9.5, 0, 0, 0, -9.5 -9.5" transform="rotate(-90,325.5,173.5)"/><rect x="316" y="183" width="19" height="19" transform="rotate(0,325.5,192.5)"/><rect x="316" y="202" width="19" height="19" transform="rotate(0,325.5,211.5)"/><rect x="316" y="221" width="19" height="19" transform="rotate(0,325.5,230.5)"/><rect x="316" y="240" width="19" height="19" transform="rotate(0,325.5,249.5)"/><rect x="316" y="259" width="19" height="19" transform="rotate(0,325.5,268.5)"/><path d="M 316 316v 19h 19v -9.5a 9.5 9.5, 0, 0, 0, -9.5 -9.5" transform="rotate(-90,325.5,325.5)"/><rect x="316" y="335" width="19" height="19" transform="rotate(0,325.5,344.5)"/><rect x="316" y="354" width="19" height="19" transform="rotate(0,325.5,363.5)"/><rect x="316" y="373" width="19" height="19" transform="rotate(0,325.5,382.5)"/><rect x="316" y="392" width="19" height="19" transform="rotate(0,325.5,401.5)"/><rect x="316" y="411" width="19" height="19" transform="rotate(0,325.5,420.5)"/><rect x="316" y="430" width="19" height="19" transform="rotate(0,325.5,439.5)"/><rect x="316" y="449" width="19" height="19" transform="rotate(0,325.5,458.5)"/><rect x="316" y="468" width="19" height="19" transform="rotate(0,325.5,477.5)"/><path d="M 335 164v 19h 9.5a 9.5 9.5, 0, 0, 0, 0 -19" transform="rotate(0,344.5,173.5)"/><rect x="335" y="221" width="19" height="19" transform="rotate(0,344.5,230.5)"/><path d="M 335 259v 19h 19v -9.5a 9.5 9.5, 0, 0, 0, -9.5 -9.5" transform="rotate(0,344.5,268.5)"/><path d="M 335 278v 19h 9.5a 9.5 9.5, 0, 0, 0, 0 -19" transform="rotate(90,344.5,287.5)"/><rect x="335" y="316" width="19" height="19" transform="rotate(0,344.5,325.5)"/><rect x="335" y="392" width="19" height="19" transform="rotate(0,344.5,401.5)"/><rect x="335" y="430" width="19" height="19" transform="rotate(0,344.5,439.5)"/><rect x="335" y="468" width="19" height="19" transform="rotate(0,344.5,477.5)"/><path d="M 354 221v 19h 9.5a 9.5 9.5, 0, 0, 0, 0 -19" transform="rotate(0,363.5,230.5)"/><rect x="354" y="316" width="19" height="19" transform="rotate(0,363.5,325.5)"/><circle cx="363.5" cy="363.5" r="9.5" transform="rotate(0,363.5,363.5)"/><rect x="354" y="392" width="19" height="19" transform="rotate(0,363.5,401.5)"/><path d="M 354 430v 19h 19v -9.5a 9.5 9.5, 0, 0, 0, -9.5 -9.5" transform="rotate(0,363.5,439.5)"/><rect x="354" y="449" width="19" height="19" transform="rotate(0,363.5,458.5)"/><rect x="354" y="468" width="19" height="19" transform="rotate(0,363.5,477.5)"/><path d="M 373 164v 19h 9.5a 9.5 9.5, 0, 0, 0, 0 -19" transform="rotate(-90,382.5,173.5)"/><rect x="373" y="183" width="19" height="19" transform="rotate(0,382.5,192.5)"/><path d="M 373 202v 19h 9.5a 9.5 9.5, 0, 0, 0, 0 -19" transform="rotate(90,382.5,211.5)"/><path d="M 373 259v 19h 19v -9.5a 9.5 9.5, 0, 0, 0, -9.5 -9.5" transform="rotate(-90,382.5,268.5)"/><rect x="373" y="278" width="19" height="19" transform="rotate(0,382.5,287.5)"/><rect x="373" y="297" width="19" height="19" transform="rotate(0,382.5,306.5)"/><rect x="373" y="316" width="19" height="19" transform="rotate(0,382.5,325.5)"/><rect x="373" y="392" width="19" height="19" transform="rotate(0,382.5,401.5)"/><path d="M 373 449v 19h 19v -9.5a 9.5 9.5, 0, 0, 0, -9.5 -9.5" transform="rotate(0,382.5,458.5)"/><path d="M 373 468v 19h 19v -9.5a 9.5 9.5, 0, 0, 0, -9.5 -9.5" transform="rotate(90,382.5,477.5)"/><path d="M 392 183v 19h 9.5a 9.5 9.5, 0, 0, 0, 0 -19" transform="rotate(0,401.5,192.5)"/><path d="M 392 240v 19h 19v -9.5a 9.5 9.5, 0, 0, 0, -9.5 -9.5" transform="rotate(-90,401.5,249.5)"/><path d="M 392 259v 19h 19v -9.5a 9.5 9.5, 0, 0, 0, -9.5 -9.5" transform="rotate(90,401.5,268.5)"/><rect x="392" y="316" width="19" height="19" transform="rotate(0,401.5,325.5)"/><rect x="392" y="335" width="19" height="19" transform="rotate(0,401.5,344.5)"/><rect x="392" y="354" width="19" height="19" transform="rotate(0,401.5,363.5)"/><rect x="392" y="373" width="19" height="19" transform="rotate(0,401.5,382.5)"/><rect x="392" y="392" width="19" height="19" transform="rotate(0,401.5,401.5)"/><path d="M 392 411v 19h 19v -9.5a 9.5 9.5, 0, 0, 0, -9.5 -9.5" transform="rotate(180,401.5,420.5)"/><path d="M 411 164v 19h 9.5a 9.5 9.5, 0, 0, 0, 0 -19" transform="rotate(180,420.5,173.5)"/><path d="M 411 202v 19h 9.5a 9.5 9.5, 0, 0, 0, 0 -19" transform="rotate(180,420.5,211.5)"/><path d="M 411 240v 19h 9.5a 9.5 9.5, 0, 0, 0, 0 -19" transform="rotate(0,420.5,249.5)"/><path d="M 411 278v 19h 19v -9.5a 9.5 9.5, 0, 0, 0, -9.5 -9.5" transform="rotate(-90,420.5,287.5)"/><rect x="411" y="297" width="19" height="19" transform="rotate(0,420.5,306.5)"/><rect x="411" y="316" width="19" height="19" transform="rotate(0,420.5,325.5)"/><rect x="411" y="335" width="19" height="19" transform="rotate(0,420.5,344.5)"/><rect x="411" y="354" width="19" height="19" transform="rotate(0,420.5,363.5)"/><rect x="411" y="392" width="19" height="19" transform="rotate(0,420.5,401.5)"/><rect x="411" y="411" width="19" height="19" transform="rotate(0,420.5,420.5)"/><rect x="411" y="430" width="19" height="19" transform="rotate(0,420.5,439.5)"/><rect x="411" y="449" width="19" height="19" transform="rotate(0,420.5,458.5)"/><path d="M 411 468v 19h 9.5a 9.5 9.5, 0, 0, 0, 0 -19" transform="rotate(90,420.5,477.5)"/><rect x="430" y="164" width="19" height="19" transform="rotate(0,439.5,173.5)"/><rect x="430" y="183" width="19" height="19" transform="rotate(0,439.5,192.5)"/><rect x="430" y="202" width="19" height="19" transform="rotate(0,439.5,211.5)"/><path d="M 430 221v 19h 19v -9.5a 9.5 9.5, 0, 0, 0, -9.5 -9.5" transform="rotate(180,439.5,230.5)"/><path d="M 430 259v 19h 19v -9.5a 9.5 9.5, 0, 0, 0, -9.5 -9.5" transform="rotate(-90,439.5,268.5)"/><path d="M 430 278v 19h 19v -9.5a 9.5 9.5, 0, 0, 0, -9.5 -9.5" transform="rotate(90,439.5,287.5)"/><rect x="430" y="335" width="19" height="19" transform="rotate(0,439.5,344.5)"/><rect x="430" y="354" width="19" height="19" transform="rotate(0,439.5,363.5)"/><rect x="430" y="392" width="19" height="19" transform="rotate(0,439.5,401.5)"/><rect x="430" y="430" width="19" height="19" transform="rotate(0,439.5,439.5)"/><path d="M 430 449v 19h 19v -9.5a 9.5 9.5, 0, 0, 0, -9.5 -9.5" transform="rotate(90,439.5,458.5)"/><path d="M 449 164v 19h 9.5a 9.5 9.5, 0, 0, 0, 0 -19" transform="rotate(0,458.5,173.5)"/><path d="M 449 221v 19h 9.5a 9.5 9.5, 0, 0, 0, 0 -19" transform="rotate(0,458.5,230.5)"/><path d="M 449 259v 19h 9.5a 9.5 9.5, 0, 0, 0, 0 -19" transform="rotate(0,458.5,268.5)"/><rect x="449" y="335" width="19" height="19" transform="rotate(0,458.5,344.5)"/><rect x="449" y="354" width="19" height="19" transform="rotate(0,458.5,363.5)"/><rect x="449" y="392" width="19" height="19" transform="rotate(0,458.5,401.5)"/><rect x="449" y="430" width="19" height="19" transform="rotate(0,458.5,439.5)"/><circle cx="477.5" cy="249.5" r="9.5" transform="rotate(0,477.5,249.5)"/><circle cx="477.5" cy="287.5" r="9.5" transform="rotate(0,477.5,287.5)"/><path d="M 468 335v 19h 19v -9.5a 9.5 9.5, 0, 0, 0, -9.5 -9.5" transform="rotate(0,477.5,344.5)"/><rect x="468" y="354" width="19" height="19" transform="rotate(0,477.5,363.5)"/><rect x="468" y="373" width="19" height="19" transform="rotate(0,477.5,382.5)"/><rect x="468" y="392" width="19" height="19" transform="rotate(0,477.5,401.5)"/><rect x="468" y="411" width="19" height="19" transform="rotate(0,477.5,420.5)"/><rect x="468" y="430" width="19" height="19" transform="rotate(0,477.5,439.5)"/><rect x="468" y="449" width="19" height="19" transform="rotate(0,477.5,458.5)"/><path d="M 468 468v 19h 9.5a 9.5 9.5, 0, 0, 0, 0 -19" transform="rotate(90,477.5,477.5)"/></clipPath><clipPath id="clip-path-corners-square-color-0-0"><path clip-rule="evenodd" d="M 12 12v 133h 133v -133zM 31 31h 95v 95h -95z" transform="rotate(0,78.5,78.5)"/></clipPath><clipPath id="clip-path-corners-dot-color-0-0"><rect x="50" y="50" width="57" height="57" transform="rotate(0,78.5,78.5)"/></clipPath><clipPath id="clip-path-corners-square-color-1-0"><path clip-rule="evenodd" d="M 354 12v 133h 133v -133zM 373 31h 95v 95h -95z" transform="rotate(90,420.5,78.5)"/></clipPath><clipPath id="clip-path-corners-dot-color-1-0"><rect x="392" y="50" width="57" height="57" transform="rotate(90,420.5,78.5)"/></clipPath><clipPath id="clip-path-corners-square-color-0-1"><path clip-rule="evenodd" d="M 12 354v 133h 133v -133zM 31 373h 95v 95h -95z" transform="rotate(-90,78.5,420.5)"/></clipPath><clipPath id="clip-path-corners-dot-color-0-1"><rect x="50" y="392" width="57" height="57" transform="rotate(-90,78.5,420.5)"/></clipPath></defs><rect x="0" y="0" height="500" width="500" clip-path="url('#clip-path-background-color')" fill="#fff"/><rect x="0" y="0" height="500" width="500" clip-path="url('#clip-path-dot-color')" fill="#000000"/><rect x="12" y="12" height="133" width="133" clip-path="url('#clip-path-corners-square-color-0-0')" fill="#000000"/><rect x="50" y="50" height="57" width="57" clip-path="url('#clip-path-corners-dot-color-0-0')" fill="#000000"/><rect x="354" y="12" height="133" width="133" clip-path="url('#clip-path-corners-square-color-1-0')" fill="#000000"/><rect x="392" y="50" height="57" width="57" clip-path="url('#clip-path-corners-dot-color-1-0')" fill="#000000"/><rect x="12" y="354" height="133" width="133" clip-path="url('#clip-path-corners-square-color-0-1')" fill="#000000"/><rect x="50" y="392" height="57" width="57" clip-path="url('#clip-path-corners-dot-color-0-1')" fill="#000000"/></svg>